<?xml version="1.0" standalone="no"?>
<!DOCTYPE svg PUBLIC "-//W3C//DTD SVG 20010904//EN"
 "http://www.w3.org/TR/2001/REC-SVG-20010904/DTD/svg10.dtd">
<svg version="1.0" xmlns="http://www.w3.org/2000/svg"
 width="512.000000pt" height="512.000000pt" viewBox="0 0 512.000000 512.000000"
 preserveAspectRatio="xMidYMid meet">
<metadata>
Created by potrace 1.11, written by Peter Selinger 2001-2013
</metadata>
<g transform="translate(0.000000,512.000000) scale(0.100000,-0.100000)"
fill="#000000" stroke="none">
<path d="M2855 4628 c-33 -19 -54 -51 -55 -83 0 -16 -6 -39 -13 -50 -11 -20
-21 -21 -152 -20 -77 1 -151 -2 -165 -7 -30 -11 -116 -93 -135 -128 -18 -36
-11 -83 19 -122 60 -80 -1 -218 -96 -218 -25 0 -64 -23 -85 -50 -7 -8 -13 -36
-13 -62 l0 -48 -830 0 c-817 0 -830 0 -885 -21 -78 -29 -155 -106 -184 -182
l-21 -59 2 -1151 3 -1152 22 -47 c27 -60 101 -134 161 -161 47 -22 52 -22 770
-25 l722 -3 0 -159 0 -159 -189 -3 c-173 -3 -192 -5 -217 -24 -53 -39 -68 -70
-72 -144 l-4 -70 802 0 802 0 -4 70 c-4 74 -19 105 -72 144 -24 19 -44 21
-177 24 l-149 3 0 160 0 159 818 1 c449 0 831 3 847 5 98 16 200 108 234 209
19 60 21 87 21 330 0 176 3 265 10 265 20 0 140 130 142 152 3 43 -2 63 -23
91 -34 47 -40 83 -22 130 23 61 51 85 108 96 36 7 57 18 77 40 26 29 28 37 28
122 0 90 0 91 -34 125 -25 25 -43 34 -67 34 -45 0 -94 40 -111 92 -18 53 -15
78 17 126 31 47 37 94 17 124 -21 31 -121 128 -132 128 -4 0 -10 111 -12 248
-3 240 -4 248 -28 297 -44 88 -141 165 -226 179 -16 2 -73 5 -126 5 l-98 1 0
46 c0 39 -5 51 -34 80 -25 25 -43 34 -68 34 -43 0 -90 41 -111 95 -18 49 -14
79 18 125 32 46 37 91 14 126 -21 33 -118 124 -133 125 -6 1 -78 2 -160 3
-164 1 -164 1 -165 70 -1 18 -13 40 -35 62 l-34 34 -248 0 c-169 -1 -255 -4
-269 -12z m315 -678 c10 -19 20 -52 23 -72 l5 -38 -80 0 -81 0 7 41 c4 23 21
63 38 90 31 46 33 48 51 31 11 -9 27 -33 37 -52z"/>
</g>
</svg>
